<?xml version="1.0" encoding="utf-8"?>
<svg version="1.1" id="Layer_1" x="0px" y="0px" width="100%" viewBox="0 0 50 50" enable-background="new 0 0 50 50" xmlns="http://www.w3.org/2000/svg">
  <path fill="#644847" opacity="1.000000" stroke="none" d=" M10.178018,31.986824 C9.047692,31.311310 7.985889,30.445995 6.770145,30.007088 C5.156423,29.424500 3.422556,29.174702 1.370157,28.890955 C1.000000,28.250000 1.000000,27.500000 1.421938,26.371101 C8.610419,26.116146 15.154035,25.794899 18.198822,17.726379 C20.625351,16.624241 22.778069,15.735353 25.331566,14.892771 C28.427343,16.062485 31.106211,17.226816 33.822163,18.297045 C36.225006,19.243889 38.669136,20.085962 41.095036,20.974291 C41.677586,21.788622 42.260139,22.602951 42.680115,23.845119 C40.351345,26.519901 38.185150,28.766844 35.963699,30.657768 C34.623669,28.860884 33.338894,27.420017 31.915134,25.823128 C31.586687,25.462713 31.391369,25.264078 31.045994,24.766779 C30.541721,23.652988 30.181652,22.843620 30.033875,21.852770 C29.810301,20.395601 29.276728,17.994217 28.954008,18.022226 C26.359478,18.247414 23.566008,18.494013 21.361084,19.699400 C20.536449,20.150209 21.111563,23.161476 20.997078,25.279102 C20.904121,25.733912 20.862549,25.914919 20.645260,26.360260 C19.645645,29.417185 18.821747,32.209778 17.750542,35.125603 C17.008936,35.495918 16.514639,35.743004 15.847854,35.827103 C15.446853,35.445351 15.221300,35.223576 14.833163,34.715340 C13.171084,33.616871 11.674551,32.801846 10.178018,31.986824 z"/>
  <path fill="#5D4444" opacity="1.000000" stroke="none" d=" M36.018959,31.013786 C38.185150,28.766844 40.351345,26.519901 42.821815,24.117859 C45.515522,24.379930 47.904957,24.797106 50.647194,25.107140 C51.000000,26.388889 51.000000,27.777779 51.000000,29.583334 C48.129932,30.160168 45.259861,30.320337 41.818321,30.841427 C39.574039,32.506618 37.844479,33.744926 36.238403,35.126755 C29.847975,40.624920 22.278738,40.969833 16.020340,35.990086 C16.514639,35.743004 17.008936,35.495918 18.046286,35.306793 C21.310028,36.742664 23.959070,38.909344 27.418228,36.115898 C28.500832,36.045761 29.222237,35.993660 30.269512,35.832214 C32.403244,34.153172 34.211102,32.583481 36.018959,31.013786 z"/>
  <path fill="#6F5050" opacity="1.000000" stroke="none" d=" M17.925011,17.939627 C15.154035,25.794899 8.610419,26.116146 1.421938,25.996101 C1.000000,26.000000 1.000000,25.500000 1.000000,25.250000 C3.977562,23.914816 6.955124,22.829632 10.387681,21.277573 C13.203454,19.853672 15.564232,18.896648 17.925011,17.939627 z"/>
  <path fill="#7B5A59" opacity="1.000000" stroke="none" d=" M18.198822,17.726379 C15.564232,18.896648 13.203454,19.853672 10.506237,20.893940 C10.185291,19.529943 10.200785,18.082705 10.361513,16.288242 C11.674618,15.323738 12.842486,14.706456 14.010355,14.089174 C15.313590,12.317320 16.616827,10.545465 18.248302,8.402878 C19.007702,8.039512 19.438862,8.046878 19.966732,8.249195 C21.337664,8.638223 22.611881,8.832299 23.886101,9.026376 C25.990263,9.015900 28.094423,9.005423 30.723730,9.076258 C32.510365,8.774149 33.771854,8.390726 35.033348,8.007304 C35.609814,9.777568 36.186279,11.547831 36.586918,13.724998 C32.584324,14.370090 28.757555,14.608276 24.930786,14.846464 C22.778069,15.735353 20.625351,16.624241 18.198822,17.726379 z"/>
  <path fill="#6F5050" opacity="1.000000" stroke="none" d=" M25.331566,14.892771 C28.757555,14.608276 32.584324,14.370090 36.761211,14.043593 C38.905769,14.416975 40.700211,14.878665 42.878017,15.438992 C42.322754,17.128958 41.800743,18.717728 41.186882,20.640396 C38.669136,20.085962 36.225006,19.243889 33.822163,18.297045 C31.106211,17.226816 28.427343,16.062485 25.331566,14.892771 z"/>
  <path fill="#654B4B" opacity="1.000000" stroke="none" d=" M35.351978,8.007254 C33.771854,8.390726 32.510365,8.774149 31.099823,9.009436 C31.376196,7.907753 31.806511,6.138499 32.226196,6.141016 C34.103386,6.152276 35.977543,6.668630 37.852795,7.002614 C37.125401,7.337477 36.398006,7.672340 35.351978,8.007254 z"/>
  <path fill="#6F5151" opacity="1.000000" stroke="none" d=" M19.870020,8.054244 C19.438862,8.046878 19.007702,8.039512 18.253204,8.030447 C17.929863,8.028749 17.478521,7.982506 17.053848,7.977527 C16.629173,7.972547 16.230333,7.959274 16.230333,7.959274 C17.213287,2.906401 20.711821,4.865627 23.444992,5.709502 C22.109333,6.768394 20.989677,7.411319 19.870020,8.054244 z"/>
  <path fill="#634949" opacity="1.000000" stroke="none" d=" M13.743399,13.947392 C12.842486,14.706456 11.674618,15.323738 10.239748,15.973861 C8.797555,15.809897 7.622364,15.613093 6.447173,15.416289 C6.450623,14.998245 6.454073,14.580201 6.457523,14.162157 C8.797163,14.043307 11.136803,13.924458 13.743399,13.947392 z"/>
  <path fill="#5E4747" opacity="1.000000" stroke="none" d=" M19.966732,8.249195 C20.989677,7.411319 22.109333,6.768394 23.544468,6.044439 C23.898138,6.729983 23.936333,7.496555 23.930315,8.644752 C22.611881,8.832299 21.337664,8.638223 19.966732,8.249195 z"/>
  <path fill="#5E4747" opacity="1.000000" stroke="none" d=" M16.246254,8.145776 C16.230333,7.959274 16.629173,7.972547 16.827568,7.993630 C16.771366,8.120568 16.516769,8.226423 16.246254,8.145776 z"/>
  <path fill="#4F3A39" opacity="1.000000" stroke="none" d=" M15.847854,35.827103 C22.278738,40.969833 29.847975,40.624920 36.238403,35.126755 C37.844479,33.744926 39.574039,32.506618 41.565777,31.091537 C41.618076,33.027950 41.351444,35.075176 40.737183,37.537369 C38.928528,38.312210 37.467510,38.672085 36.006489,39.031960 C35.074669,40.890133 34.142849,42.748302 33.173698,44.680920 C30.167814,44.399452 26.945110,44.097683 23.239326,43.768555 C20.816483,42.855251 18.876719,41.969311 16.936953,41.083370 C16.108932,40.417175 15.280911,39.750984 14.109001,38.633953 C13.486062,37.475349 13.207012,36.767586 13.180697,35.915550 C13.955192,35.513779 14.476950,35.256283 14.998709,34.998787 C15.221300,35.223576 15.446853,35.445351 15.847854,35.827103 z"/>
  <path fill="#65494A" opacity="1.000000" stroke="none" d=" M16.954453,41.429100 C18.876719,41.969311 20.816483,42.855251 22.916525,43.935871 C20.601318,44.906605 18.125834,45.682659 14.763036,46.736889 C15.873801,44.241695 16.422878,43.008266 16.954453,41.429100 z"/>
  <path fill="#5D4444" opacity="1.000000" stroke="none" d=" M14.833162,34.715340 C14.476950,35.256283 13.955192,35.513779 12.844491,35.985291 C11.127069,36.446823 9.998590,36.694340 8.870111,36.941860 C9.265263,35.533226 9.660414,34.124592 10.116791,32.351391 C11.674551,32.801846 13.171084,33.616871 14.833162,34.715340 z"/>
  <path fill="#664B4B" opacity="1.000000" stroke="none" d=" M8.534043,36.960629 C9.998590,36.694340 11.127069,36.446823 12.591756,36.129562 C13.207012,36.767586 13.486062,37.475349 13.841002,38.459442 C11.127625,38.858372 8.338359,38.980972 5.549092,39.103573 C5.437070,38.839645 5.325049,38.575714 5.213027,38.311787 C6.208010,37.867657 7.202993,37.423527 8.534043,36.960629 z"/>
  <path fill="#614747" opacity="1.000000" stroke="none" d=" M36.393822,39.064919 C37.467510,38.672085 38.928528,38.312210 40.772350,37.930962 C42.235428,37.972172 43.315704,38.034760 44.395981,38.097347 C44.373505,38.635262 44.351032,39.173172 44.328560,39.711086 C41.812759,39.506683 39.296959,39.302284 36.393822,39.064919 z"/>
  <path fill="#7A5A59" opacity="1.000000" stroke="none" d=" M21.021208,29.921930 C26.351923,32.891560 28.487518,32.012791 31.120665,25.432980 C31.391369,25.264078 31.586687,25.462713 31.948971,26.187794 C31.395739,29.786175 30.669689,32.863865 29.943642,35.941559 C29.222237,35.993660 28.500832,36.045761 27.046703,36.039146 C22.767818,35.517624 21.194778,33.331074 21.021208,29.921930 z"/>
  <path fill="#4E3938" opacity="1.000000" stroke="none" d=" M30.033875,21.852770 C26.182741,19.997057 23.616983,21.421082 21.319710,24.795649 C21.111563,23.161476 20.536449,20.150209 21.361084,19.699400 C23.566008,18.494013 26.359478,18.247414 28.954008,18.022226 C29.276728,17.994217 29.810301,20.395601 30.033875,21.852770 z"/>
  <path fill="#6C4D4D" opacity="1.000000" stroke="none" d=" M21.011452,29.537983 C21.194778,33.331074 22.767818,35.517624 26.685505,36.057182 C23.959070,38.909344 21.310028,36.742664 18.293594,35.183563 C18.821747,32.209778 19.645645,29.417185 20.645260,26.360260 C20.881214,27.115297 20.941454,28.134666 21.011452,29.537983 z"/>
  <path fill="#6C4D4D" opacity="1.000000" stroke="none" d=" M30.269512,35.832214 C30.669689,32.863865 31.395739,29.786175 32.087952,26.343815 C33.338894,27.420017 34.623669,28.860884 35.963699,30.657768 C34.211102,32.583481 32.403244,34.153172 30.269512,35.832214 z"/>
</svg>